<?xml version="1.0" encoding="UTF-8" standalone="no"?>
<svg
   version="1.1"
   width="1000"
   height="1000"
   viewBox="0 0 3125.0032 3125.0032"
   id="svg1"
   sodipodi:docname="mem.svg"
   xmlns:inkscape="http://www.inkscape.org/namespaces/inkscape"
   xmlns:sodipodi="http://sodipodi.sourceforge.net/DTD/sodipodi-0.dtd"
   xmlns:xlink="http://www.w3.org/1999/xlink"
   xmlns="http://www.w3.org/2000/svg"
   xmlns:svg="http://www.w3.org/2000/svg">
  <defs
     id="defs1">
    <inkscape:path-effect
       effect="slice"
       start_point="1562.4917,22.203024"
       end_point="1562.4917,3106.1903"
       center_point="1562.4917,1564.1967"
       id="path-effect2"
       is_visible="true"
       lpeversion="1.2"
       lpesatellites="#path2"
       allow_transforms="true" />
    <linearGradient
       id="linearGradient1"
       inkscape:collect="always">
      <stop
         style="stop-color:#930909;stop-opacity:1;"
         offset="0"
         id="stop1" />
      <stop
         style="stop-color:#180000;stop-opacity:1;"
         offset="1"
         id="stop2" />
    </linearGradient>
    <linearGradient
       inkscape:collect="always"
       xlink:href="#linearGradient1"
       id="linearGradient2"
       x1="13.581675"
       y1="1563.725"
       x2="3111.4024"
       y2="1563.725"
       gradientUnits="userSpaceOnUse" />
  </defs>
  <sodipodi:namedview
     id="namedview1"
     pagecolor="#505050"
     bordercolor="#eeeeee"
     borderopacity="1"
     inkscape:showpageshadow="0"
     inkscape:pageopacity="0"
     inkscape:pagecheckerboard="0"
     inkscape:deskcolor="#505050"
     inkscape:document-units="in" />
  <path
     id="Unnamed #2"
     fill="none"
     stroke="#000000"
     stroke-width="1"
     d="M 482.04687,22.203125 394.56641,546.52734 281.66406,121.7168 114.92773,106.22656 43.896484,1128.1191 18.849609,2638.1914 227.45703,535.73047 315.31055,902.80469 c 0,0 28.78592,148.80141 126.73437,897.03121 0.74758,-918.15395 70.65793,-842.11127 47.10547,-958.5234 -17.5709,-252.53928 68.04102,-431.38281 68.04102,-431.38281 L 853.6543,2449.4902 752.71484,1071.791 670.09375,58.816406 Z M 1562.4917,404.58753 C 1411.8529,352.75797 1265.1401,286.945 1257.7852,225.45508 c -66.0311,-21.12318 -118.0787,-27.85646 -157.3438,-28.02149 -65.4418,-0.27504 -95.3789,17.69532 -95.3789,17.69532 l 50.8438,1833.95899 c 0,0 67.2927,-2.8157 162.998,-7.5098 43.7404,-1.8777 58.6932,221.5599 110.6582,219.2129 49.697,-101.2924 160.4513,-211.1468 232.9292,-232.4789 z m 0,1436.44747 c -134.4653,-76.7581 -213.0221,-153.6214 -216.105,-151.0409 -231.7864,-216.8646 -147.6699,-513.0586 -147.6699,-513.0586 0,0 196.5717,93.2413 363.7749,95.2576 z m 0,-731.9708 C 1436.5814,1060.4567 1321.3235,980.72233 1337.7891,854.45508 1201.708,739.92058 1167.6875,602.85613 1169.5566,600.97852 c 2.0215,-2.85548 203.1874,-30.58747 392.9351,-56.23508 z"
     style="fill:url(#linearGradient2);stroke-width:10.5354;stroke-dasharray:none"
     inkscape:path-effect="#path-effect2"
     inkscape:original-d="m 2276.5229,2482.8181 c -9.3461,247.3757 22.0572,624.7765 8.5986,623.3683 -29.1602,-2.3469 -59.0682,-945.8488 -59.0682,-945.8488 0,0 113.6502,-1950.37304 113.6502,-1950.37304 0,0 202.2523,988.09514 202.2523,988.09514 0,0 252.3481,-998.89142 252.3481,-998.89142 0,0 311.79,1966.33272 311.79,1956.00582 0,-4.6939 2.9907,808.7829 -42.2448,808.3135 -168.2322,-227.1914 -21.6833,-352.9917 -59.0682,-565.1622 -34.0202,-193.8638 -117.7624,-248.7841 -117.7624,-248.7841 0,0 -143.1842,-1353.2913 -143.1842,-1353.2913 0,0 -46.7311,347.8282 -105.0516,550.1413 -11.2155,38.4911 -26.1694,94.8196 -40.0018,148.3316 -21.3094,81.6763 73.6482,179.3123 -48.6004,221.5587 14.2062,182.1286 -2.9906,-143.6376 -54.5819,-438.8926 -41.1235,-235.1714 -117.7625,-438.42325 -117.7625,-438.42325 0,0 20.5617,672.18625 8.2246,1062.26095 -5.2338,161.9443 -50.4696,269.4378 -50.4696,269.4378 0,0 -50.4696,92.4726 -59.0682,312.1536 z M 1257.7843,225.45491 C 1081.7015,169.12643 1005.0625,215.128 1005.0625,215.128 c 0,0 50.8433,1833.9608 50.8433,1833.9608 0,0 67.2929,-2.8163 162.9982,-7.5104 43.7404,-1.8777 58.6944,221.5587 110.6594,219.2117 54.5819,-111.2488 182.8121,-232.8243 253.0958,-236.1103 44.1142,-1.8777 214.9632,137.066 251.9743,135.6578 86.359,-4.2246 50.4696,1342.4952 160.0073,-174.6182 -387.3076,-42.2464 -642.6464,-300.4185 -648.2542,-295.7244 -231.7864,-216.8646 -147.6704,-513.0585 -147.6704,-513.0585 0,0 201.8785,95.7584 370.4844,95.289 159.2597,-0.4695 286.3683,-97.636 286.3683,-95.289 0,3.2859 -552.5489,-55.8591 -517.7808,-322.48045 -136.0811,-114.5345 -170.1013,-251.60045 -168.2322,-253.47806 2.9907,-4.22465 441.8897,-62.90012 634.7958,-88.71734 17.5709,241.743 89.3499,-11.7351 89.3499,-11.7351 0,0 -620.5894,-146.92341 -635.9173,-275.07064 z M 114.92787,106.22631 c 0,0 -71.03131,1021.89219 -71.03131,1021.89219 0,0 -25.047887,1510.0723 -25.047887,1510.0723 0,0 208.607747,-2102.45996 208.607747,-2102.45996 0,0 87.85455,367.07382 87.85455,367.07382 0,0 28.78635,148.80104 126.7348,897.03084 0.74758,-918.15399 70.65746,-842.11059 47.105,-958.52272 -17.5709,-252.53928 68.04052,-431.38215 68.04052,-431.38215 0,0 296.46227,2039.55977 296.46227,2039.55977 0,0 -100.93925,-1377.7003 -100.93925,-1377.7003 0,0 -82.62063,-1012.973575 -82.62063,-1012.973575 0,0 -188.04605,-36.613501 -188.04605,-36.613501 0,0 -87.48069,524.324096 -87.48069,524.324096 0,0 -112.90241,-424.81048 -112.90241,-424.81048 z" />
  <path
     id="path2"
     d="m 1562.4917,2028.3121 c 7.1241,-2.0968 13.8783,-3.3383 20.1685,-3.6324 44.1142,-1.8777 214.9615,137.0664 251.9726,135.6582 86.359,-4.2246 50.4701,1342.4942 160.0078,-174.6191 -174.3865,-19.0216 -322.0192,-81.8175 -432.1489,-144.6838 z m 0,-756.119 c 2.242,0.027 4.4786,0.038 6.7095,0.032 159.2597,-0.4695 286.3672,-97.6361 286.3672,-95.2891 0,1.7298 -153.1193,-13.841 -293.0767,-67.8713 z m 0,-727.44966 c 90.9828,-12.29786 179.3404,-24.1165 241.8599,-32.48367 17.5709,241.743 89.3496,-11.73438 89.3496,-11.73438 0,0 -167.9116,-39.75274 -331.2095,-95.93786 z M 2794.3047,199.16797 2541.9551,1198.0605 2339.7031,209.96484 2226.0527,2160.3379 c 0,0 29.9082,943.5007 59.0684,945.8476 13.4586,1.4082 -17.9438,-375.9914 -8.5977,-623.3671 8.5986,-219.681 59.0684,-312.1543 59.0684,-312.1543 0,0 45.2349,-107.4932 50.4687,-269.4375 12.3371,-390.0747 -8.2246,-1062.26176 -8.2246,-1062.26176 0,0 76.6383,203.25246 117.7618,438.42386 31.5372,180.4861 48.7165,358.3168 55.2324,438.6211 121.1458,-42.3819 26.6841,-139.7731 47.9512,-221.2871 13.8323,-53.512 28.7864,-109.841 40.0019,-148.3321 C 2697.1037,1144.0775 2743.834,796.25 2743.834,796.25 l 143.1836,1353.291 c 0,0 83.7435,54.9214 117.7637,248.7852 37.3849,212.1705 -109.1639,337.9707 59.0683,565.1621 45.2355,0.4694 42.2442,-813.0084 42.2442,-808.3145 0,10.3269 -311.7891,-1956.00583 -311.7891,-1956.00583 z M 2550.8301,1716.0098 c -0.2411,0.084 -0.4076,0.1875 -0.6504,0.2715 5.5221,70.7953 4.7937,50.7929 0.6504,-0.2715 z"
     style="display:inline;fill:url(#linearGradient2);stroke-width:10.5354;stroke-dasharray:none"
     fill="none"
     stroke="#000000"
     stroke-width="1" />
</svg>
