<?xml version="1.0" encoding="UTF-8" standalone="no"?>
<svg xmlns="http://www.w3.org/2000/svg"
     xmlns:svg="http://www.w3.org/2000/svg"
     version="1.1"
     width="0.333333in" height="0.333333in"
     viewBox="0 0 100 100">
  <path id="Unnamed #2"
        fill="none" stroke="black" stroke-width="1"
        d="M 64.86,59.01
           C 64.61,64.28 65.45,72.32 65.09,72.29
             64.31,72.24 63.51,52.14 63.51,52.14
             63.51,52.14 66.55,10.59 66.55,10.59
             66.55,10.59 71.96,31.64 71.96,31.64
             71.96,31.64 78.71,10.36 78.71,10.36
             78.71,10.36 87.05,52.25 87.05,52.03
             87.05,51.93 87.13,69.26 85.92,69.25
             81.42,64.41 85.34,61.73 84.34,57.21
             83.43,53.08 81.19,51.91 81.19,51.91
             81.19,51.91 77.36,23.08 77.36,23.08
             77.36,23.08 76.11,30.49 74.55,34.80
             74.25,35.62 73.85,36.82 73.48,37.96
             72.91,39.70 75.45,41.78 72.18,42.68
             72.56,46.56 72.10,39.62 70.72,33.33
             69.62,28.32 67.57,23.99 67.57,23.99
             67.57,23.99 68.12,38.31 67.79,46.62
             67.65,50.07 66.44,52.36 66.44,52.36
             66.44,52.36 65.09,54.33 64.86,59.01 Z
           M 37.61,10.92
           C 32.90,9.72 30.85,10.70 30.85,10.70
             30.85,10.70 32.21,49.77 32.21,49.77
             32.21,49.77 34.01,49.71 36.57,49.61
             37.74,49.57 38.14,54.33 39.53,54.28
             40.99,51.91 44.42,49.32 46.30,49.25
             47.48,49.21 52.05,52.17 53.04,52.14
             55.35,52.05 54.39,80.74 57.32,48.42
             46.96,47.52 40.13,42.02 39.98,42.12
             33.78,37.50 36.03,31.19 36.03,31.19
             36.03,31.19 41.43,33.23 45.94,33.22
             50.20,33.21 53.60,31.14 53.60,31.19
             53.60,31.26 38.82,30.00 39.75,24.32
             36.11,21.88 35.20,18.96 35.25,18.92
             35.33,18.83 47.07,17.58 52.23,17.03
             52.70,22.18 54.62,16.78 54.62,16.78
             54.62,16.78 38.02,13.65 37.61,10.92 Z
           M 7.04,8.38
           C 7.04,8.38 5.14,30.15 5.14,30.15
             5.14,30.15 4.47,62.32 4.47,62.32
             4.47,62.32 10.05,17.53 10.05,17.53
             10.05,17.53 12.40,25.35 12.40,25.35
             12.40,25.35 13.17,28.52 15.79,44.46
             15.81,24.90 17.68,26.52 17.05,24.04
             16.58,18.66 18.87,14.85 18.87,14.85
             18.87,14.85 26.80,58.30 26.80,58.30
             26.80,58.30 24.10,28.95 24.10,28.95
             24.10,28.95 21.89,7.37 21.89,7.37
             21.89,7.37 16.86,6.59 16.86,6.59
             16.86,6.59 14.52,17.76 14.52,17.76
             14.52,17.76 11.50,8.71 11.50,8.71
             11.50,8.71 7.04,8.38 7.04,8.38 Z" />
</svg>
