<svg xmlns="http://www.w3.org/2000/svg" viewBox="0 0 512 512">
  <rect x="100" y="80" width="312" height="360" fill="none" stroke="#80ff72" stroke-width="32" transform="translate(16 16)" />
  <rect x="180" y="48" width="152" height="64" fill="#80ff72" transform="translate(16 16)" />
  <line x1="160" y1="176" x2="352" y2="176" stroke="#80ff72" stroke-width="24" transform="translate(16 16)" />
  <line x1="160" y1="240" x2="280" y2="240" stroke="#80ff72" stroke-width="24" transform="translate(16 16)" />

  <rect x="100" y="80" width="312" height="360" fill="#fff" stroke="#000" stroke-width="32" />
  <rect x="180" y="48" width="152" height="64" fill="#000" />
  <line x1="160" y1="176" x2="352" y2="176" stroke="#000" stroke-width="24" />
  <line x1="160" y1="240" x2="280" y2="240" stroke="#000" stroke-width="24" />

  <polyline points="120,280 240,400 480,140" fill="none" stroke="#fff" stroke-width="72" stroke-linejoin="miter" stroke-linecap="square" />
  <polyline points="120,280 240,400 480,140" fill="none" stroke="#80ff72" stroke-width="40" stroke-linejoin="miter" stroke-linecap="square" transform="translate(16 16)" />
  <polyline points="120,280 240,400 480,140" fill="none" stroke="#000" stroke-width="40" stroke-linejoin="miter" stroke-linecap="square" />

  <g>
    <rect x="360" y="390" width="110" height="80" fill="#80ff72" transform="translate(16 16)" />
    <rect x="360" y="390" width="110" height="80" fill="#000" stroke="#fff" stroke-width="8" />
    <text x="415" y="446" fill="#fff" font-family="'Courier New', Courier, monospace" font-weight="900" font-size="48" text-anchor="middle">pm</text>
  </g>
</svg>
