<svg xmlns="http://www.w3.org/2000/svg" viewBox="0 0 512 512">
  <g transform="translate(16 16) scale(0.42)">
    <polygon points="48,256 256,96 464,256 256,416" fill="none" stroke="#ffde59" stroke-width="32" stroke-linejoin="miter" transform="translate(16 16)" />
    <line x1="256" y1="108" x2="256" y2="404" stroke="#ffde59" stroke-width="16" transform="translate(16 16)" />
    <line x1="60" y1="256" x2="452" y2="256" stroke="#ffde59" stroke-width="16" transform="translate(16 16)" />
    <rect x="192" y="192" width="128" height="128" fill="#ffde59" transform="translate(16 16)" />
    <rect x="360" y="390" width="110" height="80" fill="#ffde59" transform="translate(16 16)" />

    <polygon points="48,256 256,96 464,256 256,416" fill="#fff" stroke="#000" stroke-width="32" stroke-linejoin="miter" />
    <line x1="256" y1="108" x2="256" y2="404" stroke="#000" stroke-width="16" />
    <line x1="60" y1="256" x2="452" y2="256" stroke="#000" stroke-width="16" />
    <rect x="192" y="192" width="128" height="128" fill="#000" />
    <rect x="264" y="216" width="32" height="32" fill="#fff" />
    <g>
      <rect x="360" y="390" width="110" height="80" fill="#000" stroke="#fff" stroke-width="8" />
      <text x="415" y="446" fill="#fff" font-family="'Courier New', Courier, monospace" font-weight="900" font-size="48" text-anchor="middle">pm</text>
    </g>
  </g>

  <g transform="translate(280 16) scale(0.42)">
    <rect x="48" y="104" width="416" height="304" fill="none" stroke="#38b6ff" stroke-width="32" transform="translate(16 16)" />
    <rect x="48" y="104" width="416" height="72" fill="#38b6ff" transform="translate(16 16)" />
    <polyline points="96,224 144,272 96,320" fill="none" stroke="#38b6ff" stroke-width="32" stroke-linejoin="miter" stroke-linecap="square" transform="translate(16 16)" />
    <rect x="176" y="296" width="48" height="24" fill="#38b6ff" transform="translate(16 16)" />
    <rect x="96" y="352" width="128" height="24" fill="#38b6ff" transform="translate(16 16)" />
    <rect x="240" y="352" width="160" height="24" fill="#38b6ff" transform="translate(16 16)" />
    <rect x="360" y="390" width="110" height="80" fill="#38b6ff" transform="translate(16 16)" />

    <rect x="48" y="104" width="416" height="304" fill="#fff" stroke="#000" stroke-width="32" />
    <rect x="48" y="104" width="416" height="72" fill="#000" />
    <rect x="80" y="128" width="24" height="24" fill="#fff" />
    <rect x="128" y="128" width="24" height="24" fill="#fff" />
    <polyline points="96,224 144,272 96,320" fill="none" stroke="#000" stroke-width="32" stroke-linejoin="miter" stroke-linecap="square" />
    <rect x="176" y="296" width="48" height="24" fill="#000" />
    <rect x="96" y="352" width="128" height="24" fill="#000" />
    <rect x="240" y="352" width="160" height="24" fill="#000" />
    <g>
      <rect x="360" y="390" width="110" height="80" fill="#000" stroke="#fff" stroke-width="8" />
      <text x="415" y="446" fill="#fff" font-family="'Courier New', Courier, monospace" font-weight="900" font-size="48" text-anchor="middle">pm</text>
    </g>
  </g>

  <g transform="translate(16 280) scale(0.42)">
    <circle cx="256" cy="256" r="144" fill="none" stroke="#ff90e8" stroke-width="32" transform="translate(16 16)" />
    <polygon points="320,40 120,280 260,280 160,480 440,200 280,200" fill="#ff90e8" transform="translate(16 16)" />
    <rect x="360" y="390" width="110" height="80" fill="#ff90e8" transform="translate(16 16)" />

    <circle cx="256" cy="256" r="144" fill="none" stroke="#000" stroke-width="32" />
    <polygon points="320,40 120,280 260,280 160,480 440,200 280,200" fill="#fff" stroke="#000" stroke-width="32" stroke-linejoin="miter" />
    <polygon points="320,40 120,280 260,280 160,480 440,200 280,200" fill="#000" />
    <g>
      <rect x="360" y="390" width="110" height="80" fill="#000" stroke="#fff" stroke-width="8" />
      <text x="415" y="446" fill="#fff" font-family="'Courier New', Courier, monospace" font-weight="900" font-size="48" text-anchor="middle">pm</text>
    </g>
  </g>

  <g transform="translate(280 280) scale(0.42)">
    <rect x="100" y="80" width="312" height="360" fill="none" stroke="#80ff72" stroke-width="32" transform="translate(16 16)" />
    <rect x="180" y="48" width="152" height="64" fill="#80ff72" transform="translate(16 16)" />
    <line x1="160" y1="176" x2="352" y2="176" stroke="#80ff72" stroke-width="24" transform="translate(16 16)" />
    <line x1="160" y1="240" x2="280" y2="240" stroke="#80ff72" stroke-width="24" transform="translate(16 16)" />
    <polyline points="120,280 240,400 480,140" fill="none" stroke="#80ff72" stroke-width="40" stroke-linejoin="miter" stroke-linecap="square" transform="translate(16 16)" />
    <rect x="360" y="390" width="110" height="80" fill="#80ff72" transform="translate(16 16)" />

    <rect x="100" y="80" width="312" height="360" fill="#fff" stroke="#000" stroke-width="32" />
    <rect x="180" y="48" width="152" height="64" fill="#000" />
    <line x1="160" y1="176" x2="352" y2="176" stroke="#000" stroke-width="24" />
    <line x1="160" y1="240" x2="280" y2="240" stroke="#000" stroke-width="24" />
    <polyline points="120,280 240,400 480,140" fill="none" stroke="#fff" stroke-width="72" stroke-linejoin="miter" stroke-linecap="square" />
    <polyline points="120,280 240,400 480,140" fill="none" stroke="#000" stroke-width="40" stroke-linejoin="miter" stroke-linecap="square" />
    <g>
      <rect x="360" y="390" width="110" height="80" fill="#000" stroke="#fff" stroke-width="8" />
      <text x="415" y="446" fill="#fff" font-family="'Courier New', Courier, monospace" font-weight="900" font-size="48" text-anchor="middle">pm</text>
    </g>
  </g>

  <polygon points="192,48 320,48 320,240 432,240 256,464 80,240 192,240" fill="#fff" stroke="#fff" stroke-width="64" stroke-linejoin="miter" />
  <polygon points="192,48 320,48 320,240 432,240 256,464 80,240 192,240" fill="#ff5e00" transform="translate(16 16)" />
  <polygon points="192,48 320,48 320,240 432,240 256,464 80,240 192,240" fill="#000" />
</svg>
